<svg id="Ski" xmlns="http://www.w3.org/2000/svg" width="84.449" height="65" viewBox="0 0 84.449 65">
  <path id="Tracé_13" data-name="Tracé 13" d="M90.111,105.611a.982.982,0,0,1,.2-.156l2.493-1.5a.979.979,0,1,1,1,1.68l-2.21,1.33a4.03,4.03,0,0,1,.325.729,4.574,4.574,0,0,1,.229,1.263l1.359-.016,1.793-1.717a.98.98,0,1,1,1.359,1.412l-1,.96a3.561,3.561,0,0,1,1.126,1.676,4.672,4.672,0,0,1,.233,1.51,4.831,4.831,0,0,1-.252,1.519,3.375,3.375,0,0,1-3.26,2.478H88.163l-5.188,4.971c1.471,1.308,2.521,2.761,2.562,4.451,0,.031,0,.061,0,.094-.119,3.8-3.319,8.08-6.518,12.363-1.41,1.887-2.818,3.774-3.927,5.567h33.719l7.726-6.154a.98.98,0,0,1,1.22,1.535l-7.949,6.33a.979.979,0,0,1-.659.254H34.662a.982.982,0,1,1,0-1.965H67.591a4.816,4.816,0,0,1-.95-1.021,3.82,3.82,0,0,1,.031-4.349l-.835-.884-3.15,2.978a.98.98,0,0,1-1.343-1.428l3.148-2.976-1.085-1.15a.98.98,0,1,1,1.428-1.343l1.081,1.146,6.408-6.058a.975.975,0,0,1,.158-.121,28.522,28.522,0,0,0-4.318-2.581,51.739,51.739,0,0,1-5.327-3.143l-10.308,5.593,1.218,2.251a.981.981,0,0,1-1.727.929l-1.214-2.243-4.75,2.577a.983.983,0,0,1-.937-1.727L49.87,128.1l-1.218-2.251a.981.981,0,0,1,1.727-.929l1.214,2.243,9.57-5.192c-.1-.092-.2-.184-.3-.278-2.716-2.609-3.708-5.722-.043-9.557.018-.02.037-.039.057-.059l5.041-4.736q-.009-.184,0-.375a4.611,4.611,0,0,1,.246-1.3c.424-1.531,2.413-3.8,4.875-6.007a45.826,45.826,0,0,1,8.505-6.123,1.052,1.052,0,0,1,.182-.072,7.092,7.092,0,0,1,5.278.336,6.149,6.149,0,0,1,2.519,2.132,5.538,5.538,0,0,1,.892,3.479,10.8,10.8,0,0,1-2.781,5.98l3.074-.037a.789.789,0,0,1,.1,0,3.464,3.464,0,0,1,1.3.26ZM62.237,113.49c-2.624,2.742-1.934,4.951-.016,6.792.244.233.508.465.786.69l9.289-5.041-.01-.02a2.462,2.462,0,0,1,.162-2.783,9.025,9.025,0,0,1-1.821-.432,7.992,7.992,0,0,1-3.367-2.2,5.979,5.979,0,0,1-.731-1.036l-4.292,4.032ZM68.05,106.2c-.008.031-.016.061-.027.09a2.623,2.623,0,0,0-.147.759,3.108,3.108,0,0,0,.858,2.159,5.994,5.994,0,0,0,2.538,1.641,7.175,7.175,0,0,0,2.024.393v0H88.646a1.5,1.5,0,0,0,1.4-1.144,2.861,2.861,0,0,0,.151-.9,2.726,2.726,0,0,0-.133-.882,1.312,1.312,0,0,0-1.257-.993c-.025,0-.051,0-.076,0l-13.714.162a.98.98,0,0,1-.667-1.707l0,0,4.371-3.929a.981.981,0,1,1,1.312,1.459L77.6,105.495l5.382-.063c2.386-2.458,3.375-4.513,3.481-6.136a3.618,3.618,0,0,0-.571-2.274,4.184,4.184,0,0,0-1.721-1.441,5.1,5.1,0,0,0-3.766-.27,43.722,43.722,0,0,0-8.059,5.814c-2.225,1.991-3.993,3.94-4.3,5.071Zm21.04,6.981a3.932,3.932,0,0,1-.446.027H81.417a1.071,1.071,0,0,1-.129.084l-2.816,1.527h8.909l1.709-1.637Zm-11.768.027H75.485a6.761,6.761,0,0,0-.817.5,6.6,6.6,0,0,0,.855.473l1.8-.976Zm-4.187,30.473a74.35,74.35,0,0,1,4.312-6.191c3.013-4.032,6.023-8.063,6.133-11.231-.049-2.155-3.27-4.21-6.187-6.07a30.309,30.309,0,0,1-3.829-2.708l-8.788,4.768c1.373.89,2.9,1.711,4.314,2.47,3.015,1.619,5.567,2.992,5.7,4.7a.988.988,0,0,1-.147.649l-6.078,9.471-.043.061a2.126,2.126,0,0,0-.254,2.513,3.213,3.213,0,0,0,.915.86,5.506,5.506,0,0,0,1.347.62c1.162.366,2.3.438,2.605.088Zm2.274-27.2c.827.647,1.909,1.338,3.037,2.057,1,.636,2.026,1.293,2.982,1.987l3.9-3.741H78.153v0h-.039a9.083,9.083,0,0,1-2.45-.44l-.256.141Zm-7.648,20.678,1.635-2.548-2.135,2.018.5.53ZM92.727,81.19a7.84,7.84,0,1,0,5.544,2.3,7.817,7.817,0,0,0-5.544-2.3Zm4.154,3.686A5.88,5.88,0,1,0,98.6,89.032a5.859,5.859,0,0,0-1.721-4.157Zm-6.67,29.941H93.5a1.5,1.5,0,0,0,1.4-1.144,2.861,2.861,0,0,0,.151-.9,2.725,2.725,0,0,0-.133-.882,1.421,1.421,0,0,0-.741-.886Z" transform="translate(-33.68 -81.19)" fill="#292929" fill-rule="evenodd"/>
</svg>
